<?xml version="1.0" encoding="UTF-8" standalone="no"?>
<svg width="180px" height="200px" viewBox="0 0 180 200" version="1.1" xmlns="http://www.w3.org/2000/svg" xmlns:xlink="http://www.w3.org/1999/xlink">
    <!-- Generator: Sketch 43.2 (39069) - http://www.bohemiancoding.com/sketch -->
    <title>Brooks_Illustration_20</title>
    <desc>Created with Sketch.</desc>
    <defs></defs>
    <g id="Website" stroke="none" stroke-width="1" fill="none" fill-rule="evenodd">
        <g id="Brooks_Illustration_20" fill-rule="nonzero" fill="#E45663">
            <g id="Brooks_Element_105" transform="translate(24.000000, 56.000000)">
                <polygon id="Rectangle-85-Copy-2" points="11.0855409 86.4880769 7.00000006 86.4880766 7.81 87.2980766 7.81 56 7 56.81 123.721535 56.81 122.911535 56 122.911535 87.2980769 123.721535 86.4880769 120.853928 86.4880769 120.853928 88.1080769 123.721535 88.1080769 124.531535 88.1080769 124.531535 87.2980769 124.531535 56 124.531535 55.19 123.721535 55.19 7 55.19 6.19 55.19 6.19 56 6.19 87.2980766 6.19 88.1080766 6.99999994 88.1080766 11.0855408 88.1080769"></polygon>
                <path d="M17,62.81 L31.0065842,62.81 L30.1965842,62 L30.1965842,63.159188 L31.0065842,62.349188 L17,62.349188 L17.81,63.159188 L17.81,62 L17,62.81 L17,62.81 Z M17,62 L31.0065842,62 L31.0065842,63.159188 L17,63.159188 L17,62 L17,62 Z" id="Rectangle-95-Copy-6"></path>
                <path d="M38,62.81 L52.0065842,62.81 L51.1965842,62 L51.1965842,63.159188 L52.0065842,62.349188 L38,62.349188 L38.81,63.159188 L38.81,62 L38,62.81 L38,62.81 Z M38,62 L52.0065842,62 L52.0065842,63.159188 L38,63.159188 L38,62 L38,62 Z" id="Rectangle-95-Copy-7"></path>
                <path d="M0,47.81 L0,47.81 L0.81,47 L0.81,56.2735043 L0,55.4635043 L130.728119,55.4635043 L129.918119,56.2735043 L129.918119,47 L130.728119,47.81 L0,47.81 Z M0,47 L130.728119,47 L130.728119,56.2735043 L0,56.2735043 L0,47 L0,47 Z" id="Rectangle-85-Copy-3"></path>
                <path d="M7,45.81 L7,45.81 L7.81,45 L7.81,48.4775641 L7,47.6675641 L122.55432,47.6675641 L121.74432,48.4775641 L121.74432,45 L122.55432,45.81 L7,45.81 Z M7,45 L122.55432,45 L122.55432,48.4775641 L7,48.4775641 L7,45 L7,45 Z" id="Rectangle-86-Copy"></path>
                <path d="M114.517817,43.9770208 C105.237587,25.7856916 86.585073,14.095 65.8581324,14.095 C45.1275129,14.095 26.4722368,25.7898583 17.1937641,43.9862036 L18.8062359,44.8084168 C27.778839,27.2119233 45.8152933,15.905 65.8581324,15.905 C85.8974152,15.905 103.931197,27.2078935 112.9055,44.7995376 L114.517817,43.9770208 L114.517817,43.9770208 Z" id="Oval-14-Copy-6"></path>
                <path d="M63,13.81 L63,13.81 L63.81,13 L63.81,15.3183761 L63,14.5083761 L68.8360768,14.5083761 L68.0260768,15.3183761 L68.0260768,13 L68.8360768,13.81 L63,13.81 Z M63,13 L68.8360768,13 L68.8360768,15.3183761 L63,15.3183761 L63,13 L63,13 Z" id="Rectangle-87-Copy"></path>
                <path d="M66.5722154,13.2846165 L66.5722154,0.60826139 C66.5722154,0.384586066 66.3908907,0.20326139 66.1672154,0.20326139 C65.94354,0.20326139 65.7622154,0.384586066 65.7622154,0.60826139 L65.7622154,13.2846165 C65.7622154,13.5082918 65.94354,13.6896165 66.1672154,13.6896165 C66.3908907,13.6896165 66.5722154,13.5082918 66.5722154,13.2846165 L66.5722154,13.2846165 Z" id="Path-197-Copy"></path>
                <path d="M11,86.81 L11,86.81 L11.81,86 L11.81,88.3183761 L11,87.5083761 L120.718243,87.5083761 L119.908243,88.3183761 L119.908243,86 L120.718243,86.81 L11,86.81 Z M11,86 L120.718243,86 L120.718243,88.3183761 L11,88.3183761 L11,86 L11,86 Z" id="Rectangle-88-Copy"></path>
                <path d="M20,65.81 L20,65.81 L20.81,65 L20.81,85.8653846 L20,85.0553846 L27.0032921,85.0553846 L26.1932921,85.8653846 L26.1932921,65 L27.0032921,65.81 L20,65.81 Z M20,65 L27.0032921,65 L27.0032921,85.8653846 L20,85.8653846 L20,65 L20,65 Z" id="Rectangle-89"></path>
                <path d="M41.0098763,65.81 L41.0098763,65.81 L41.8198763,65 L41.8198763,85.8653846 L41.0098763,85.0553846 L48.0131684,85.0553846 L47.2031684,85.8653846 L47.2031684,65 L48.0131684,65.81 L41.0098763,65.81 Z M41.0098763,65 L48.0131684,65 L48.0131684,85.8653846 L41.0098763,85.8653846 L41.0098763,65 L41.0098763,65 Z" id="Rectangle-89-Copy"></path>
                <path d="M62.0197526,65.81 L62.0197526,65.81 L62.8297526,65 L62.8297526,85.8653846 L62.0197526,85.0553846 L69.0230447,85.0553846 L68.2130447,85.8653846 L68.2130447,65 L69.0230447,65.81 L62.0197526,65.81 Z M62.0197526,65 L69.0230447,65 L69.0230447,85.8653846 L62.0197526,85.8653846 L62.0197526,65 L62.0197526,65 Z" id="Rectangle-89-Copy-2"></path>
                <path d="M83.0296289,65.81 L83.0296289,65.81 L83.8396289,65 L83.8396289,85.8653846 L83.0296289,85.0553846 L90.032921,85.0553846 L89.222921,85.8653846 L89.222921,65 L90.032921,65.81 L83.0296289,65.81 Z M83.0296289,65 L90.032921,65 L90.032921,85.8653846 L83.0296289,85.8653846 L83.0296289,65 L83.0296289,65 Z" id="Rectangle-89-Copy-3"></path>
                <path d="M104.039505,65.81 L104.039505,65.81 L104.849505,65 L104.849505,85.8653846 L104.039505,85.0553846 L111.042797,85.0553846 L110.232797,85.8653846 L110.232797,65 L111.042797,65.81 L104.039505,65.81 Z M104.039505,65 L111.042797,65 L111.042797,85.8653846 L104.039505,85.8653846 L104.039505,65 L104.039505,65 Z" id="Rectangle-89-Copy-4"></path>
                <polygon id="Path-198-Copy" points="14 61.564188 117.973981 61.564188 117.973981 60.754188 14 60.754188"></polygon>
                <path d="M18.2718697,63.81 L18.2718697,63.81 L18.1853617,63.5522608 L18.5825383,63 L18.8544081,63 L19.9351154,66.2198249 L19.1672154,65.6675641 L28.5049382,65.6675641 L27.7370381,66.2198249 L28.8177454,63 L29.0896152,63 L29.4867918,63.5522608 L29.4002838,63.81 L18.2718697,63.81 Z M18,63 L29.6721535,63 L28.5049382,66.4775641 L19.1672154,66.4775641 L18,63 L18,63 Z" id="Rectangle-94-Copy-6"></path>
                <path d="M39.2718697,63.81 L39.2718697,63.81 L39.1853617,63.5522608 L39.5825383,63 L39.8544081,63 L40.9351154,66.2198249 L40.1672154,65.6675641 L49.5049382,65.6675641 L48.7370381,66.2198249 L49.8177454,63 L50.0896152,63 L50.4867918,63.5522608 L50.4002838,63.81 L39.2718697,63.81 Z M39,63 L50.6721535,63 L49.5049382,66.4775641 L40.1672154,66.4775641 L39,63 L39,63 Z" id="Rectangle-94-Copy-7"></path>
                <path d="M59,62.81 L73.0065842,62.81 L72.1965842,62 L72.1965842,63.159188 L73.0065842,62.349188 L59,62.349188 L59.81,63.159188 L59.81,62 L59,62.81 L59,62.81 Z M59,62 L73.0065842,62 L73.0065842,63.159188 L59,63.159188 L59,62 L59,62 Z" id="Rectangle-95-Copy-8"></path>
                <path d="M60.2718697,63.81 L60.2718697,63.81 L60.1853617,63.5522608 L60.5825383,63 L60.8544081,63 L61.9351154,66.2198249 L61.1672154,65.6675641 L70.5049382,65.6675641 L69.7370381,66.2198249 L70.8177454,63 L71.0896152,63 L71.4867918,63.5522608 L71.4002838,63.81 L60.2718697,63.81 Z M60,63 L71.6721535,63 L70.5049382,66.4775641 L61.1672154,66.4775641 L60,63 L60,63 Z" id="Rectangle-94-Copy-8"></path>
                <path d="M80,62.81 L94.0065842,62.81 L93.1965842,62 L93.1965842,63.159188 L94.0065842,62.349188 L80,62.349188 L80.81,63.159188 L80.81,62 L80,62.81 L80,62.81 Z M80,62 L94.0065842,62 L94.0065842,63.159188 L80,63.159188 L80,62 L80,62 Z" id="Rectangle-95-Copy-9"></path>
                <path d="M81.2718697,63.81 L81.2718697,63.81 L81.1853617,63.5522608 L81.5825383,63 L81.8544081,63 L82.9351154,66.2198249 L82.1672154,65.6675641 L91.5049382,65.6675641 L90.7370381,66.2198249 L91.8177454,63 L92.0896152,63 L92.4867918,63.5522608 L92.4002838,63.81 L81.2718697,63.81 Z M81,63 L92.6721535,63 L91.5049382,66.4775641 L82.1672154,66.4775641 L81,63 L81,63 Z" id="Rectangle-94-Copy-9"></path>
                <path d="M101,62.81 L115.006584,62.81 L114.196584,62 L114.196584,63.159188 L115.006584,62.349188 L101,62.349188 L101.81,63.159188 L101.81,62 L101,62.81 L101,62.81 Z M101,62 L115.006584,62 L115.006584,63.159188 L101,63.159188 L101,62 L101,62 Z" id="Rectangle-95-Copy-10"></path>
                <path d="M102.27187,63.81 L102.27187,63.81 L102.185362,63.5522608 L102.582538,63 L102.854408,63 L103.935115,66.2198249 L103.167215,65.6675641 L112.504938,65.6675641 L111.737038,66.2198249 L112.817745,63 L113.089615,63 L113.486792,63.5522608 L113.400284,63.81 L102.27187,63.81 Z M102,63 L113.672154,63 L112.504938,66.4775641 L103.167215,66.4775641 L102,63 L102,63 Z" id="Rectangle-94-Copy-10"></path>
                <path d="M30.405,85.9489673 L30.405,74.5980412 C30.405,72.8624961 32.2977326,71.405 34.6688614,71.405 C37.0421944,71.405 38.9327228,72.8626512 38.9327228,74.5980412 L38.9327228,85.9489673 L39.7427228,85.9489673 L39.7427228,74.5980412 C39.7427228,72.3625256 37.4502969,70.595 34.6688614,70.595 C31.8897778,70.595 29.595,72.3620905 29.595,74.5980412 L29.595,85.9489673 L30.405,85.9489673 L30.405,85.9489673 Z" id="Rectangle-104-Copy-8"></path>
                <path d="M51.405,85.9489673 L51.405,74.5980412 C51.405,72.8624961 53.2977326,71.405 55.6688614,71.405 C58.0421944,71.405 59.9327228,72.8626512 59.9327228,74.5980412 L59.9327228,85.9489673 L60.7427228,85.9489673 L60.7427228,74.5980412 C60.7427228,72.3625256 58.4502969,70.595 55.6688614,70.595 C52.8897778,70.595 50.595,72.3620905 50.595,74.5980412 L50.595,85.9489673 L51.405,85.9489673 L51.405,85.9489673 Z" id="Rectangle-104-Copy-9"></path>
                <path d="M72.405,85.9489673 L72.405,74.5980412 C72.405,72.8624961 74.2977326,71.405 76.6688614,71.405 C79.0421944,71.405 80.9327228,72.8626512 80.9327228,74.5980412 L80.9327228,85.9489673 L81.7427228,85.9489673 L81.7427228,74.5980412 C81.7427228,72.3625256 79.4502969,70.595 76.6688614,70.595 C73.8897778,70.595 71.595,72.3620905 71.595,74.5980412 L71.595,85.9489673 L72.405,85.9489673 L72.405,85.9489673 Z" id="Rectangle-104-Copy-10"></path>
                <path d="M93.405,85.9489673 L93.405,74.5980412 C93.405,72.8624961 95.2977326,71.405 97.6688614,71.405 C100.042194,71.405 101.932723,72.8626512 101.932723,74.5980412 L101.932723,85.9489673 L102.742723,85.9489673 L102.742723,74.5980412 C102.742723,72.3625256 100.450297,70.595 97.6688614,70.595 C94.8897778,70.595 92.595,72.3620905 92.595,74.5980412 L92.595,85.9489673 L93.405,85.9489673 L93.405,85.9489673 Z" id="Rectangle-104-Copy-11"></path>
                <path d="M32.4800495,45.0328211 L32.4800495,38.4230193 C32.4800495,37.3475418 33.445677,36.4657787 34.6688614,36.4657787 C35.8822305,36.4657787 36.8576733,37.3563931 36.8576733,38.4230193 L36.8576733,45.0328211 L37.6676733,45.0328211 L37.6676733,38.4230193 C37.6676733,36.891765 36.313963,35.6557787 34.6688614,35.6557787 C33.0139244,35.6557787 31.6700495,36.8829384 31.6700495,38.4230193 L31.6700495,45.0328211 L32.4800495,45.0328211 L32.4800495,45.0328211 Z" id="Rectangle-104"></path>
                <path d="M39.7427228,38.6367521 C39.7427228,35.8516413 37.4704544,33.595 34.6688614,33.595 C31.8672684,33.595 29.595,35.8516413 29.595,38.6367521 C29.595,38.8604275 29.7763247,39.0417521 30,39.0417521 C30.2236753,39.0417521 30.405,38.8604275 30.405,38.6367521 C30.405,36.300248 32.3133725,34.405 34.6688614,34.405 C37.0243503,34.405 38.9327228,36.300248 38.9327228,38.6367521 C38.9327228,38.8604275 39.1140475,39.0417521 39.3377228,39.0417521 C39.5613981,39.0417521 39.7427228,38.8604275 39.7427228,38.6367521 L39.7427228,38.6367521 Z" id="Oval-14"></path>
                <path d="M53.4800495,45.0328211 L53.4800495,38.4230193 C53.4800495,37.3475418 54.445677,36.4657787 55.6688614,36.4657787 C56.8822305,36.4657787 57.8576733,37.3563931 57.8576733,38.4230193 L57.8576733,45.0328211 L58.6676733,45.0328211 L58.6676733,38.4230193 C58.6676733,36.891765 57.313963,35.6557787 55.6688614,35.6557787 C54.0139244,35.6557787 52.6700495,36.8829384 52.6700495,38.4230193 L52.6700495,45.0328211 L53.4800495,45.0328211 L53.4800495,45.0328211 Z" id="Rectangle-104"></path>
                <path d="M60.7427228,38.6367521 C60.7427228,35.8516413 58.4704544,33.595 55.6688614,33.595 C52.8672684,33.595 50.595,35.8516413 50.595,38.6367521 C50.595,38.8604275 50.7763247,39.0417521 51,39.0417521 C51.2236753,39.0417521 51.405,38.8604275 51.405,38.6367521 C51.405,36.300248 53.3133725,34.405 55.6688614,34.405 C58.0243503,34.405 59.9327228,36.300248 59.9327228,38.6367521 C59.9327228,38.8604275 60.1140475,39.0417521 60.3377228,39.0417521 C60.5613981,39.0417521 60.7427228,38.8604275 60.7427228,38.6367521 L60.7427228,38.6367521 Z" id="Oval-14"></path>
                <path d="M74.4800495,45.0328211 L74.4800495,38.4230193 C74.4800495,37.3475418 75.445677,36.4657787 76.6688614,36.4657787 C77.8822305,36.4657787 78.8576733,37.3563931 78.8576733,38.4230193 L78.8576733,45.0328211 L79.6676733,45.0328211 L79.6676733,38.4230193 C79.6676733,36.891765 78.313963,35.6557787 76.6688614,35.6557787 C75.0139244,35.6557787 73.6700495,36.8829384 73.6700495,38.4230193 L73.6700495,45.0328211 L74.4800495,45.0328211 L74.4800495,45.0328211 Z" id="Rectangle-104"></path>
                <path d="M81.7427228,38.6367521 C81.7427228,35.8516413 79.4704544,33.595 76.6688614,33.595 C73.8672684,33.595 71.595,35.8516413 71.595,38.6367521 C71.595,38.8604275 71.7763247,39.0417521 72,39.0417521 C72.2236753,39.0417521 72.405,38.8604275 72.405,38.6367521 C72.405,36.300248 74.3133725,34.405 76.6688614,34.405 C79.0243503,34.405 80.9327228,36.300248 80.9327228,38.6367521 C80.9327228,38.8604275 81.1140475,39.0417521 81.3377228,39.0417521 C81.5613981,39.0417521 81.7427228,38.8604275 81.7427228,38.6367521 L81.7427228,38.6367521 Z" id="Oval-14"></path>
                <path d="M95.4800495,45.0328211 L95.4800495,38.4230193 C95.4800495,37.3475418 96.445677,36.4657787 97.6688614,36.4657787 C98.8822305,36.4657787 99.8576733,37.3563931 99.8576733,38.4230193 L99.8576733,45.0328211 L100.667673,45.0328211 L100.667673,38.4230193 C100.667673,36.891765 99.313963,35.6557787 97.6688614,35.6557787 C96.0139244,35.6557787 94.6700495,36.8829384 94.6700495,38.4230193 L94.6700495,45.0328211 L95.4800495,45.0328211 L95.4800495,45.0328211 Z" id="Rectangle-104"></path>
                <path d="M102.742723,38.6367521 C102.742723,35.8516413 100.470454,33.595 97.6688614,33.595 C94.8672684,33.595 92.595,35.8516413 92.595,38.6367521 C92.595,38.8604275 92.7763247,39.0417521 93,39.0417521 C93.2236753,39.0417521 93.405,38.8604275 93.405,38.6367521 C93.405,36.300248 95.3133725,34.405 97.6688614,34.405 C100.02435,34.405 101.932723,36.300248 101.932723,38.6367521 C101.932723,38.8604275 102.114047,39.0417521 102.337723,39.0417521 C102.561398,39.0417521 102.742723,38.8604275 102.742723,38.6367521 L102.742723,38.6367521 Z" id="Oval-14"></path>
                <path d="M42,21.2596154 L88.952381,21.2596154 C89.0904521,21.2596154 89.202381,21.1476866 89.202381,21.0096154 C89.202381,20.8715442 89.0904521,20.7596154 88.952381,20.7596154 L42,20.7596154 C41.8619288,20.7596154 41.75,20.8715442 41.75,21.0096154 C41.75,21.1476866 41.8619288,21.2596154 42,21.2596154 L42,21.2596154 Z" id="Path-238-Copy-3"></path>
                <path d="M34,26.0576923 L97.1428571,26.0576923 C97.2809283,26.0576923 97.3928571,25.9457635 97.3928571,25.8076923 C97.3928571,25.6696211 97.2809283,25.5576923 97.1428571,25.5576923 L34,25.5576923 C33.8619288,25.5576923 33.75,25.6696211 33.75,25.8076923 C33.75,25.9457635 33.8619288,26.0576923 34,26.0576923 L34,26.0576923 Z" id="Path-238-Copy-4"></path>
                <path d="M29,31.0576923 L104.285714,31.0576923 C104.423785,31.0576923 104.535714,30.9457635 104.535714,30.8076923 C104.535714,30.6696211 104.423785,30.5576923 104.285714,30.5576923 L29,30.5576923 C28.8619288,30.5576923 28.75,30.6696211 28.75,30.8076923 C28.75,30.9457635 28.8619288,31.0576923 29,31.0576923 L29,31.0576923 Z" id="Path-238-Copy-5"></path>
                <path d="M24,37.4519231 L28.9958845,37.4519231 C29.1339557,37.4519231 29.2458845,37.3399943 29.2458845,37.2019231 C29.2458845,37.0638519 29.1339557,36.9519231 28.9958845,36.9519231 L24,36.9519231 C23.8619288,36.9519231 23.75,37.0638519 23.75,37.2019231 C23.75,37.3399943 23.8619288,37.4519231 24,37.4519231 L24,37.4519231 Z" id="Path-242-Copy-5"></path>
                <path d="M102,37.4519231 L106.995884,37.4519231 C107.133956,37.4519231 107.245884,37.3399943 107.245884,37.2019231 C107.245884,37.0638519 107.133956,36.9519231 106.995884,36.9519231 L102,36.9519231 C101.861929,36.9519231 101.75,37.0638519 101.75,37.2019231 C101.75,37.3399943 101.861929,37.4519231 102,37.4519231 L102,37.4519231 Z" id="Path-242-Copy-6"></path>
                <path d="M41,37.2596154 L49.9047619,37.2596154 C50.0428331,37.2596154 50.1547619,37.1476866 50.1547619,37.0096154 C50.1547619,36.8715442 50.0428331,36.7596154 49.9047619,36.7596154 L41,36.7596154 C40.8619288,36.7596154 40.75,36.8715442 40.75,37.0096154 C40.75,37.1476866 40.8619288,37.2596154 41,37.2596154 L41,37.2596154 Z" id="Path-242-Copy-7"></path>
                <path d="M61,37.2596154 L69.9047619,37.2596154 C70.0428331,37.2596154 70.1547619,37.1476866 70.1547619,37.0096154 C70.1547619,36.8715442 70.0428331,36.7596154 69.9047619,36.7596154 L61,36.7596154 C60.8619288,36.7596154 60.75,36.8715442 60.75,37.0096154 C60.75,37.1476866 60.8619288,37.2596154 61,37.2596154 L61,37.2596154 Z" id="Path-242-Copy-8"></path>
                <path d="M82,37.2596154 L90.9047619,37.2596154 C91.0428331,37.2596154 91.1547619,37.1476866 91.1547619,37.0096154 C91.1547619,36.8715442 91.0428331,36.7596154 90.9047619,36.7596154 L82,36.7596154 C81.8619288,36.7596154 81.75,36.8715442 81.75,37.0096154 C81.75,37.1476866 81.8619288,37.2596154 82,37.2596154 L82,37.2596154 Z" id="Path-242-Copy-9"></path>
            </g>
        </g>
    </g>
</svg>