<?xml version="1.0" encoding="UTF-8"?>
<svg width="60px" height="86px" viewBox="0 0 60 86" version="1.1" xmlns="http://www.w3.org/2000/svg" xmlns:xlink="http://www.w3.org/1999/xlink">
    <!-- Generator: Sketch 43.2 (39069) - http://www.bohemiancoding.com/sketch -->
    <title>Light_bulb_font_awesome</title>
    <desc>Created with Sketch.</desc>
    <defs></defs>
    <g id="Website" stroke="none" stroke-width="1" fill="none" fill-rule="evenodd">
        <g id="Elements" transform="translate(-761.000000, -137.000000)" fill="#EC9151">
            <g id="Help" transform="translate(746.000000, 120.000000)">
                <g id="Light_bulb_font_awesome" transform="translate(15.000000, 16.000000)">
                    <g id="g3015">
                        <g transform="translate(29.555845, 43.945214) scale(-1, 1) rotate(-180.000000) translate(-29.555845, -43.945214) translate(0.055845, 0.945214)" fill-rule="nonzero">
                            <path d="M42.40625,60.6314095 C42.40625,60.1484387 42.2237956,59.7304832 41.8588867,59.3775431 C41.4939779,59.0246029 41.061849,58.8481328 40.5625,58.8481328 C40.063151,58.8481328 39.6310221,59.0246029 39.2661133,59.3775431 C38.9012044,59.7304832 38.71875,60.1484387 38.71875,60.6314095 C38.71875,62.3403831 37.6816406,63.6592648 35.6074219,64.5880548 C33.5332031,65.5168448 31.4973958,65.9812398 29.5,65.9812398 C29.000651,65.9812398 28.5685221,66.1577099 28.2036133,66.5106501 C27.8387044,66.8635903 27.65625,67.2815457 27.65625,67.7645165 C27.65625,68.2474873 27.8387044,68.6654428 28.2036133,69.018383 C28.5685221,69.3713232 29.000651,69.5477933 29.5,69.5477933 C31.4205729,69.5477933 33.331543,69.2505805 35.2329102,68.6561549 C37.1342773,68.0617293 38.8051758,67.0586361 40.2456055,65.6468754 C41.6860352,64.2351146 42.40625,62.5632927 42.40625,60.6314095 Z M51.625,60.6314095 C51.625,63.3063246 50.9624023,65.7954818 49.637207,68.0988809 C48.3120117,70.4022801 46.5834961,72.2877237 44.4516602,73.7552119 C42.3198242,75.2227 39.9575195,76.3743996 37.3647461,77.2103106 C34.7719727,78.0462215 32.1503906,78.464177 29.5,78.464177 C26.8496094,78.464177 24.2280273,78.0462215 21.6352539,77.2103106 C19.0424805,76.3743996 16.6801758,75.2227 14.5483398,73.7552119 C12.4165039,72.2877237 10.6879883,70.4022801 9.36279297,68.0988809 C8.03759766,65.7954818 7.375,63.3063246 7.375,60.6314095 C7.375,56.879098 8.68098958,53.5354541 11.2929687,50.6004778 C11.6770833,50.1918102 12.2628581,49.5788088 13.050293,48.7614737 C13.8377279,47.9441385 14.4235026,47.3311371 14.8076172,46.9224695 C19.7242839,41.2382749 22.4322917,35.7026866 22.9316406,30.3157048 L36.0683594,30.3157048 C36.5677083,35.7026866 39.2757161,41.2382749 44.1923828,46.9224695 C44.5764974,47.3311371 45.1622721,47.9441385 45.949707,48.7614737 C46.7371419,49.5788088 47.3229167,50.1918102 47.7070313,50.6004778 C50.3190104,53.5354541 51.625,56.879098 51.625,60.6314095 Z M59,60.6314095 C59,54.8729117 57.0218099,49.8945974 53.0654297,45.6964667 C51.3369141,43.8760384 49.9060872,42.2599438 48.7729492,40.8481831 C47.6398112,39.4364223 46.4970703,37.6624335 45.3447266,35.5262165 C44.1923828,33.3899996 43.539388,31.3931011 43.3857422,29.5355212 C45.1910807,28.4952764 46.09375,26.9720609 46.09375,24.9658745 C46.09375,23.5912653 45.6136068,22.4024142 44.6533203,21.399321 C45.6136068,20.3962278 46.09375,19.2073767 46.09375,17.8327675 C46.09375,15.9008844 45.2294922,14.3962446 43.5009766,13.3188482 C44.0003255,12.4643615 44.25,11.5912989 44.25,10.6996605 C44.25,8.99068695 43.6450195,7.67180519 42.4350586,6.74301521 C41.2250977,5.81422524 39.7366536,5.34983025 37.9697266,5.34983025 C37.2014974,3.7151599 36.0491536,2.41485393 34.5126953,1.44891236 C32.976237,0.482970787 31.3053385,0 29.5,0 C27.6946615,0 26.023763,0.482970787 24.4873047,1.44891236 C22.9508464,2.41485393 21.7985026,3.7151599 21.0302734,5.34983025 C19.2633464,5.34983025 17.7749023,5.81422524 16.5649414,6.74301521 C15.3549805,7.67180519 14.75,8.99068695 14.75,10.6996605 C14.75,11.5912989 14.9996745,12.4643615 15.4990234,13.3188482 C13.7705078,14.3962446 12.90625,15.9008844 12.90625,17.8327675 C12.90625,19.2073767 13.3863932,20.3962278 14.3466797,21.399321 C13.3863932,22.4024142 12.90625,23.5912653 12.90625,24.9658745 C12.90625,26.9720609 13.8089193,28.4952764 15.6142578,29.5355212 C15.460612,31.3931011 14.8076172,33.3899996 13.6552734,35.5262165 C12.5029297,37.6624335 11.3601888,39.4364223 10.2270508,40.8481831 C9.09391276,42.2599438 7.66308594,43.8760384 5.93457031,45.6964667 C1.9781901,49.8945974 0,54.8729117 0,60.6314095 C0,64.3094178 0.854654948,67.7366528 2.56396484,70.9131145 C4.27327474,74.0895763 6.52034505,76.7273398 9.30517578,78.8264051 C12.0900065,80.9254705 15.2397461,82.5787166 18.7543945,83.7861436 C22.269043,84.9935705 25.8509115,85.597284 29.5,85.597284 C33.1490885,85.597284 36.730957,84.9935705 40.2456055,83.7861436 C43.7602539,82.5787166 46.9099935,80.9254705 49.6948242,78.8264051 C52.4796549,76.7273398 54.7267253,74.0895763 56.4360352,70.9131145 C58.1453451,67.7366528 59,64.3094178 59,60.6314095 Z" id="path3017"></path>
                        </g>
                    </g>
                </g>
            </g>
        </g>
    </g>
</svg>